<svg width="48" height="48" viewBox="0 0 48 48" fill="none" xmlns="http://www.w3.org/2000/svg">
<path d="M34.1251 42.1875C33.9246 42.1875 33.7265 42.1447 33.5439 42.062C33.3614 41.9792 33.1986 41.8583 33.0666 41.7075L25.6407 33.2194H11.1226C9.51927 33.2174 7.98224 32.5795 6.84863 31.4458C5.71503 30.312 5.07742 28.7748 5.07568 27.1716V10.5478C5.07742 8.94453 5.71503 7.40739 6.84863 6.27361C7.98224 5.13983 9.51927 4.50199 11.1226 4.5H36.7163C38.3196 4.50199 39.8566 5.13983 40.9902 6.27361C42.1238 7.40739 42.7614 8.94453 42.7632 10.5478V27.1716C42.7614 28.7748 42.1238 30.312 40.9902 31.4458C39.8566 32.5795 38.3196 33.2174 36.7163 33.2194H35.5313V40.7812C35.5313 41.1542 35.3832 41.5119 35.1194 41.7756C34.8557 42.0393 34.498 42.1875 34.1251 42.1875ZM11.1226 7.3125C10.265 7.31374 9.44287 7.65503 8.83655 8.26153C8.23023 8.86802 7.88918 9.69022 7.88818 10.5478V27.1716C7.88918 28.0292 8.23023 28.8514 8.83655 29.4578C9.44287 30.0643 10.265 30.4056 11.1226 30.4069H26.2782C26.4786 30.4068 26.6768 30.4496 26.8593 30.5324C27.0419 30.6152 27.2046 30.7361 27.3366 30.8869L32.7188 37.0397V31.8131C32.7188 31.4402 32.867 31.0825 33.1307 30.8188C33.3944 30.555 33.7521 30.4069 34.1251 30.4069H36.7116C37.5692 30.4056 38.3913 30.0643 38.9976 29.4578C39.604 28.8514 39.945 28.0292 39.946 27.1716V10.5478C39.945 9.69087 39.6045 8.86924 38.999 8.26285C38.3934 7.65646 37.5723 7.31473 36.7154 7.3125H11.1226Z" fill="black"/>
<path d="M18.7155 24.7499C18.3421 24.7493 17.984 24.6014 17.7189 24.3384C17.687 24.3055 17.6561 24.2709 17.6252 24.2352C17.5961 24.1998 17.5689 24.1628 17.5436 24.1246C17.518 24.0865 17.4945 24.0471 17.4733 24.0065C17.4517 23.9662 17.432 23.924 17.4142 23.8818C17.3964 23.8396 17.3814 23.7955 17.3673 23.7524C17.3533 23.7093 17.343 23.6587 17.3336 23.6184C17.3242 23.578 17.3177 23.5246 17.313 23.4824C17.3084 23.4363 17.3063 23.39 17.3064 23.3437C17.3062 23.2976 17.3084 23.2517 17.313 23.2059C17.3177 23.1599 17.3252 23.1121 17.3336 23.069C17.342 23.0259 17.3542 22.9752 17.3673 22.9359C17.3805 22.8965 17.3964 22.8477 17.4142 22.8055C17.432 22.7634 17.4517 22.7221 17.4733 22.6818C17.4947 22.6409 17.5182 22.6012 17.5436 22.5627C17.5689 22.5252 17.5961 22.4877 17.6252 22.4521C17.6542 22.4165 17.6861 22.3818 17.7189 22.349C17.8666 22.2027 18.0445 22.0907 18.2402 22.0207C18.4358 21.9507 18.6445 21.9245 18.8514 21.944C18.8973 21.9487 18.9452 21.9562 18.9883 21.9646C19.0314 21.973 19.082 21.9852 19.1214 21.9984C19.1608 22.0115 19.2095 22.0274 19.2517 22.0452C19.2939 22.063 19.3352 22.0827 19.3755 22.1043C19.4158 22.1259 19.4561 22.1493 19.4945 22.1746C19.533 22.1999 19.5695 22.2271 19.6052 22.2562C19.6408 22.2852 19.6755 22.3171 19.7073 22.3499C19.7392 22.3827 19.7711 22.4174 19.8011 22.453C19.8311 22.4887 19.8573 22.5262 19.8827 22.5637C19.9081 22.6021 19.9316 22.6419 19.953 22.6827C19.9748 22.7234 19.9945 22.7646 20.012 22.8065C20.0298 22.8487 20.0448 22.8927 20.0589 22.9368C20.073 22.9809 20.0833 23.0249 20.0927 23.0699C20.102 23.1149 20.1086 23.1637 20.1133 23.2068C20.118 23.2499 20.1198 23.3005 20.1198 23.3446C20.1198 23.3887 20.1198 23.4384 20.1133 23.4834C20.1067 23.5284 20.1011 23.5771 20.0927 23.6193C20.0842 23.6615 20.072 23.713 20.0589 23.7534C20.0458 23.7937 20.0298 23.8405 20.012 23.8827C19.9942 23.9249 19.9745 23.9671 19.953 24.0074C19.9314 24.0477 19.908 24.0871 19.8827 24.1255C19.8573 24.164 19.8292 24.2005 19.8011 24.2362C19.773 24.2718 19.7402 24.3065 19.7073 24.3393C19.6745 24.3721 19.6408 24.403 19.6052 24.433C19.5695 24.463 19.532 24.4893 19.4945 24.5146C19.457 24.5399 19.4158 24.5634 19.3755 24.5849C19.3352 24.6065 19.2939 24.6262 19.2517 24.644C19.2095 24.6618 19.1655 24.6768 19.1214 24.6909C19.0773 24.7049 19.0333 24.7152 18.9883 24.7246C18.9433 24.734 18.8945 24.7405 18.8514 24.7452C18.8083 24.7499 18.7614 24.7499 18.7155 24.7499Z" fill="black"/>
<path d="M29.1225 24.7499C29.0766 24.7499 29.0288 24.7499 28.9847 24.7434C28.9406 24.7368 28.891 24.7312 28.8478 24.7227C28.8047 24.7143 28.7541 24.7021 28.7138 24.689C28.6735 24.6759 28.6266 24.6599 28.5844 24.6421C28.5422 24.6243 28.501 24.6046 28.4606 24.5831C28.4198 24.5616 28.3801 24.5382 28.3416 24.5127C28.3041 24.4874 28.2666 24.4602 28.231 24.4312C28.1953 24.4021 28.1606 24.3702 28.1278 24.3374C28.095 24.3046 28.0641 24.2699 28.0341 24.2343C28.0041 24.1987 27.9778 24.1612 27.9525 24.1237C27.9271 24.0852 27.9036 24.0455 27.8822 24.0046C27.8603 23.964 27.8406 23.9227 27.8231 23.8809C27.8053 23.8387 27.7903 23.7946 27.7763 23.7515C27.7622 23.7084 27.7519 23.6577 27.7425 23.6174C27.7331 23.5771 27.7266 23.5237 27.7219 23.4815C27.7172 23.4393 27.7153 23.3877 27.7153 23.3427C27.7153 23.2977 27.7153 23.249 27.7219 23.204C27.7285 23.159 27.7341 23.1102 27.7425 23.0681C27.751 23.0259 27.7631 22.9743 27.7763 22.934C27.7894 22.8937 27.8053 22.8468 27.8231 22.8046C27.841 22.7624 27.8606 22.7202 27.8822 22.6799C27.9038 22.6396 27.9272 22.6002 27.9525 22.5618C27.9778 22.5236 28.005 22.4866 28.0341 22.4512C28.0631 22.4156 28.095 22.3809 28.1278 22.3481C28.1606 22.3152 28.1953 22.2843 28.231 22.2543C28.2666 22.2243 28.3041 22.1981 28.3416 22.1727C28.3801 22.1473 28.4198 22.1238 28.4606 22.1024C28.5013 22.0812 28.5425 22.0615 28.5844 22.0434C28.6266 22.0256 28.6706 22.0106 28.7138 21.9965C28.7569 21.9824 28.8075 21.9721 28.8478 21.9627C28.8881 21.9534 28.9416 21.9468 28.9847 21.9421C29.0767 21.9337 29.1693 21.9337 29.2613 21.9421C29.3063 21.9468 29.355 21.9543 29.3972 21.9627C29.4394 21.9712 29.491 21.9834 29.5313 21.9965C29.5716 22.0096 29.6185 22.0256 29.6606 22.0434C29.7028 22.0612 29.7441 22.0809 29.7844 22.1024C29.8252 22.1238 29.865 22.1473 29.9035 22.1727C29.941 22.1981 29.9785 22.2252 30.0141 22.2543C30.0497 22.2834 30.0844 22.3152 30.1172 22.3481C30.15 22.3809 30.181 22.4156 30.211 22.4512C30.24 22.4866 30.2672 22.5236 30.2925 22.5618C30.3175 22.6006 30.341 22.6399 30.3628 22.6799C30.3844 22.7202 30.4041 22.7624 30.4219 22.8046C30.4397 22.8468 30.4547 22.8909 30.4688 22.934C30.4828 22.9771 30.4931 23.0277 30.5025 23.0681C30.5119 23.1084 30.5185 23.1618 30.5231 23.204C30.5321 23.2975 30.5321 23.3917 30.5231 23.4852C30.5185 23.5302 30.511 23.579 30.5025 23.6212C30.4941 23.6634 30.4819 23.7149 30.4688 23.7552C30.4556 23.7956 30.4397 23.8424 30.4219 23.8846C30.4041 23.9268 30.3844 23.9681 30.3628 24.0084C30.3414 24.0492 30.3179 24.089 30.2925 24.1274C30.2672 24.1649 30.24 24.2024 30.211 24.2381C30.1819 24.2737 30.15 24.3084 30.1172 24.3412C30.0844 24.374 30.0497 24.4049 30.0141 24.4349C29.9785 24.4649 29.941 24.4912 29.9035 24.5165C29.865 24.5419 29.8252 24.5654 29.7844 24.5868C29.7438 24.6081 29.7025 24.6277 29.6606 24.6459C29.6185 24.6637 29.5744 24.6787 29.5313 24.6927C29.4881 24.7068 29.4422 24.7171 29.3972 24.7265C29.3522 24.7359 29.3035 24.7424 29.2613 24.7471C29.2191 24.7518 29.1685 24.7499 29.1225 24.7499Z" fill="black"/>
<path d="M23.9185 24.7499C23.8724 24.75 23.8264 24.7478 23.7807 24.7433C23.7347 24.7387 23.6869 24.7312 23.6438 24.7227C23.6007 24.7143 23.5547 24.7021 23.5107 24.689C23.4666 24.6758 23.4235 24.6599 23.3813 24.6421C23.3391 24.6243 23.2969 24.6046 23.2566 24.583C23.1754 24.5397 23.0985 24.4889 23.0269 24.4312C22.9913 24.4021 22.9566 24.3702 22.9247 24.3374C22.8917 24.3046 22.8605 24.2702 22.831 24.2343C22.8019 24.1987 22.7738 24.1612 22.7485 24.1237C22.723 24.0852 22.6996 24.0454 22.6782 24.0046C22.6569 23.964 22.6372 23.9227 22.6191 23.8808C22.6022 23.8387 22.5863 23.7946 22.5732 23.7505C22.5595 23.7068 22.5482 23.6624 22.5394 23.6174C22.521 23.527 22.5119 23.435 22.5122 23.3427C22.5121 23.2964 22.5143 23.2501 22.5188 23.204C22.5234 23.1583 22.5302 23.113 22.5394 23.068C22.5483 23.0228 22.5596 22.978 22.5732 22.934C22.5863 22.8908 22.6022 22.8468 22.6191 22.8046C22.636 22.7624 22.6566 22.7212 22.6782 22.6808C22.6996 22.64 22.723 22.6003 22.7485 22.5618C22.7738 22.5243 22.8019 22.4868 22.831 22.4512C22.8605 22.4152 22.8917 22.3808 22.9247 22.348C22.9566 22.3162 22.9913 22.2843 23.0269 22.2543C23.0985 22.1965 23.1754 22.1457 23.2566 22.1024C23.2969 22.0808 23.3391 22.0612 23.3813 22.0433C23.4235 22.0255 23.4666 22.0105 23.5107 21.9965C23.5547 21.9824 23.5997 21.9721 23.6438 21.9627C23.6878 21.9533 23.7375 21.9468 23.7807 21.9421C23.8742 21.9334 23.9684 21.9334 24.0619 21.9421C24.1078 21.9468 24.1557 21.9543 24.1978 21.9627C24.24 21.9712 24.2916 21.9833 24.3319 21.9965C24.3722 22.0096 24.4191 22.0255 24.4613 22.0433C24.5035 22.0612 24.5457 22.0808 24.586 22.1024C24.6263 22.124 24.6657 22.1474 24.7041 22.1727C24.7426 22.198 24.7799 22.2252 24.8157 22.2543C24.8513 22.2833 24.886 22.3152 24.9178 22.348C24.9508 22.3808 24.9821 22.4152 25.0116 22.4512C25.0407 22.4868 25.0678 22.5243 25.0941 22.5618C25.1195 22.6003 25.143 22.64 25.1644 22.6808C25.186 22.721 25.2054 22.7623 25.2225 22.8046C25.2404 22.8469 25.256 22.8901 25.2694 22.934C25.2825 22.978 25.2938 23.0277 25.3032 23.068C25.3123 23.113 25.3192 23.1583 25.3238 23.204C25.3283 23.2501 25.3305 23.2964 25.3303 23.3427C25.3306 23.435 25.3215 23.527 25.3032 23.6174C25.2938 23.6624 25.2825 23.7112 25.2694 23.7505C25.2562 23.7948 25.2405 23.8383 25.2225 23.8808C25.2054 23.9231 25.186 23.9644 25.1644 24.0046C25.1428 24.0449 25.1194 24.0852 25.0941 24.1237C25.0688 24.1621 25.0407 24.1987 25.0116 24.2343C24.9821 24.2702 24.9508 24.3046 24.9178 24.3374C24.886 24.3693 24.8513 24.4012 24.8157 24.4312C24.7799 24.4602 24.7426 24.4874 24.7041 24.5127C24.666 24.5377 24.6266 24.5612 24.586 24.583C24.5457 24.6046 24.5035 24.6243 24.4613 24.6421C24.4191 24.6599 24.376 24.6749 24.3319 24.689C24.2878 24.703 24.2428 24.7133 24.1978 24.7227C24.1528 24.7321 24.1041 24.7387 24.0619 24.7433C24.0142 24.748 23.9664 24.7502 23.9185 24.7499Z" fill="black"/>
</svg>
