<svg width="14" height="14" viewBox="0 0 14 14" fill="none" xmlns="http://www.w3.org/2000/svg">
<path d="M6.06683 8.19998L4.61683 6.74998C4.49461 6.62776 4.34461 6.56665 4.16683 6.56665C3.98905 6.56665 3.8335 6.63331 3.70016 6.76665C3.57794 6.88887 3.51683 7.04442 3.51683 7.23331C3.51683 7.4222 3.57794 7.57776 3.70016 7.69998L5.60016 9.59998C5.72238 9.7222 5.87794 9.78331 6.06683 9.78331C6.25572 9.78331 6.41127 9.7222 6.5335 9.59998L10.3168 5.81665C10.4391 5.69442 10.5002 5.54442 10.5002 5.36665C10.5002 5.18887 10.4335 5.03331 10.3002 4.89998C10.1779 4.77776 10.0224 4.71665 9.8335 4.71665C9.64461 4.71665 9.48905 4.77776 9.36683 4.89998L6.06683 8.19998ZM7.00016 13.6666C6.07794 13.6666 5.21127 13.4915 4.40016 13.1413C3.58905 12.7915 2.8835 12.3166 2.2835 11.7166C1.6835 11.1166 1.20861 10.4111 0.858829 9.59998C0.508607 8.78887 0.333496 7.9222 0.333496 6.99998C0.333496 6.07776 0.508607 5.21109 0.858829 4.39998C1.20861 3.58887 1.6835 2.88331 2.2835 2.28331C2.8835 1.68331 3.58905 1.2082 4.40016 0.85798C5.21127 0.508202 6.07794 0.333313 7.00016 0.333313C7.92238 0.333313 8.78905 0.508202 9.60016 0.85798C10.4113 1.2082 11.1168 1.68331 11.7168 2.28331C12.3168 2.88331 12.7917 3.58887 13.1415 4.39998C13.4917 5.21109 13.6668 6.07776 13.6668 6.99998C13.6668 7.9222 13.4917 8.78887 13.1415 9.59998C12.7917 10.4111 12.3168 11.1166 11.7168 11.7166C11.1168 12.3166 10.4113 12.7915 9.60016 13.1413C8.78905 13.4915 7.92238 13.6666 7.00016 13.6666Z" fill="#D14532"/>
</svg>
