<svg width="21" height="17" viewBox="0 0 21 17" fill="none" xmlns="http://www.w3.org/2000/svg">
<path d="M17.25 15.75C17.25 15.9489 17.171 16.1397 17.0303 16.2803C16.8897 16.421 16.6989 16.5 16.5 16.5H2.25C1.85218 16.5 1.47064 16.342 1.18934 16.0607C0.908035 15.7794 0.75 15.3978 0.75 15V3.75C0.75 3.55109 0.829018 3.36032 0.96967 3.21967C1.11032 3.07902 1.30109 3 1.5 3C1.69891 3 1.88968 3.07902 2.03033 3.21967C2.17098 3.36032 2.25 3.55109 2.25 3.75V15H16.5C16.6989 15 16.8897 15.079 17.0303 15.2197C17.171 15.3603 17.25 15.5511 17.25 15.75ZM20.0812 5.72813C20.0909 5.71766 20.0974 5.70465 20.1 5.69063L20.1188 5.6625L20.1469 5.63438L20.1656 5.60625C20.1656 5.5875 20.175 5.57813 20.175 5.56875L20.1937 5.54063C20.1937 5.52188 20.2031 5.5125 20.2031 5.50313L20.2219 5.46563C20.2217 5.45252 20.2249 5.43959 20.2313 5.42813V5.4C20.2388 5.38561 20.2421 5.36933 20.2406 5.35313C20.2402 5.34805 20.2408 5.34293 20.2424 5.3381C20.244 5.33326 20.2466 5.32881 20.25 5.325V5.175C20.2466 5.1712 20.244 5.16674 20.2424 5.16191C20.2408 5.15707 20.2402 5.15196 20.2406 5.14688C20.2421 5.13067 20.2388 5.1144 20.2313 5.1V5.07188C20.2249 5.06041 20.2217 5.04748 20.2219 5.03438L20.2031 4.99688C20.2031 4.9875 20.1937 4.97813 20.1937 4.95938L20.175 4.93125C20.175 4.92188 20.1656 4.9125 20.1656 4.89375L20.1469 4.86563L20.1188 4.8375L20.1 4.80938C20.0974 4.79535 20.0909 4.78234 20.0812 4.77188C20.0719 4.7625 20.0531 4.75313 20.0438 4.73438C20.0383 4.72957 20.035 4.72285 20.0344 4.71563L15.5344 0.215627C15.3887 0.0960297 15.2037 0.0349107 15.0154 0.0441583C14.8271 0.0534059 14.649 0.132359 14.5157 0.26566C14.3824 0.398961 14.3034 0.577079 14.2942 0.765368C14.2849 0.953657 14.346 1.13866 14.4656 1.28438L17.6906 4.5H14.25C12.088 4.49834 9.98692 5.216 8.27771 6.53991C6.56849 7.86383 5.34831 9.71877 4.80938 11.8125C4.76079 12.0039 4.78966 12.2067 4.8897 12.377C4.98975 12.5472 5.1529 12.6712 5.34375 12.7219L5.53125 12.75C5.69799 12.7495 5.85993 12.6942 5.99209 12.5925C6.12425 12.4909 6.21927 12.3485 6.2625 12.1875C6.71827 10.4159 7.75056 8.84626 9.19672 7.726C10.6429 6.60573 12.4207 5.99851 14.25 6H17.6906L14.4656 9.21563C14.3248 9.35782 14.2458 9.54987 14.2458 9.75C14.2458 9.95014 14.3248 10.1422 14.4656 10.2844C14.609 10.423 14.8006 10.5005 15 10.5005C15.1994 10.5005 15.391 10.423 15.5344 10.2844L20.0344 5.78438C20.035 5.77715 20.0383 5.77044 20.0438 5.76563C20.0531 5.74688 20.0719 5.7375 20.0812 5.72813Z" fill="#D14532"/>
</svg>
