<svg width="88" height="88" viewBox="0 0 88 88" fill="none" xmlns="http://www.w3.org/2000/svg">
<circle cx="45.6923" cy="45.6923" r="40.6154" fill="white"/>
<path d="M22.6188 43.4672V57.3203C22.6188 58.025 23.2031 58.6094 23.9078 58.6094H28.2219C28.9266 61.2906 31.35 63.2672 34.2375 63.2672C37.125 63.2672 39.5656 61.2906 40.2531 58.6094H56.8734C57.5781 61.2906 60.0016 63.2672 62.8891 63.2672C65.7766 63.2672 68.2172 61.2906 68.9047 58.6094H72.1016C72.8062 58.6094 73.3906 58.025 73.3906 57.3203V45.1688C73.3906 44.8938 73.3047 44.636 73.15 44.4297L68.6813 38.1219C68.4406 37.7781 68.0453 37.5719 67.6328 37.5719H58.3172V33.5156C58.3172 32.8109 57.7328 32.2266 57.0281 32.2266H33.275C32.3813 27.9469 28.5828 24.7156 24.0453 24.7156C18.8375 24.7156 14.6094 28.9438 14.6094 34.1516C14.6094 38.8609 18.0984 42.7797 22.6188 43.4672ZM34.2375 60.6891C32.2266 60.6891 30.5938 59.0563 30.5938 57.0453C30.5938 55.0344 32.2266 53.4016 34.2375 53.4016C36.2484 53.4016 37.8812 55.0344 37.8812 57.0453C37.8812 59.0563 36.2312 60.6891 34.2375 60.6891ZM62.8891 60.6891C60.8781 60.6891 59.2453 59.0563 59.2453 57.0453C59.2453 55.0344 60.8781 53.4016 62.8891 53.4016C64.9 53.4016 66.5328 55.0344 66.5328 57.0453C66.5328 59.0563 64.9 60.6891 62.8891 60.6891ZM70.8125 45.5984V45.8047H63.8V40.1672H66.9625L70.8125 45.5984ZM61.2219 40.1672V47.0938C61.2219 47.7985 61.8063 48.3828 62.5109 48.3828H70.8125V56.0313H69.025C68.5438 53.075 65.9656 50.8235 62.8891 50.8235C61.0844 50.8235 59.4516 51.5969 58.3172 52.8344V40.1672H61.2219ZM55.7391 56.0485H40.3734C39.8922 53.0922 37.3141 50.8406 34.2375 50.8406C31.1609 50.8406 28.5828 53.0922 28.1016 56.0485H25.1969V43.5188C29.6484 42.9688 33.1375 39.325 33.4469 34.8219H55.7391V56.0485ZM24.0453 27.3109C27.8266 27.3109 30.9031 30.3875 30.9031 34.1688C30.9031 37.95 27.8266 41.0266 24.0453 41.0266C20.2641 41.0266 17.1875 37.95 17.1875 34.1688C17.1875 30.3875 20.2641 27.3109 24.0453 27.3109Z" fill="#D14532"/>
<path d="M22.3266 37.0907C22.5672 37.3313 22.8937 37.4688 23.2375 37.4688C23.5812 37.4688 23.9078 37.3313 24.1484 37.0907L28.1875 33.0516C28.6859 32.5532 28.6859 31.7282 28.1875 31.2297C27.6891 30.7313 26.8641 30.7313 26.3656 31.2297L23.2375 34.3578L21.725 32.8454C21.2266 32.3469 20.4016 32.3469 19.9031 32.8454C19.4047 33.3438 19.4047 34.1688 19.9031 34.6672L22.3266 37.0907Z" fill="#D14532"/>
</svg>
