<svg width="60" height="40" viewBox="0 0 60 40" fill="none" xmlns="http://www.w3.org/2000/svg">
<path d="M8.61875 19.4672V33.3203C8.61875 34.025 9.20313 34.6094 9.90781 34.6094H14.2219C14.9266 37.2906 17.35 39.2672 20.2375 39.2672C23.125 39.2672 25.5656 37.2906 26.2531 34.6094H42.8734C43.5781 37.2906 46.0016 39.2672 48.8891 39.2672C51.7766 39.2672 54.2172 37.2906 54.9047 34.6094H58.1016C58.8063 34.6094 59.3906 34.025 59.3906 33.3203V21.1688C59.3906 20.8938 59.3047 20.636 59.15 20.4297L54.6813 14.1219C54.4406 13.7781 54.0453 13.5719 53.6328 13.5719H44.3172V9.51564C44.3172 8.81095 43.7328 8.22657 43.0281 8.22657H19.275C18.3813 3.94689 14.5828 0.715637 10.0453 0.715637C4.8375 0.715637 0.609375 4.94376 0.609375 10.1516C0.609375 14.8609 4.09844 18.7797 8.61875 19.4672ZM20.2375 36.6891C18.2266 36.6891 16.5938 35.0563 16.5938 33.0453C16.5938 31.0344 18.2266 29.4016 20.2375 29.4016C22.2484 29.4016 23.8812 31.0344 23.8812 33.0453C23.8812 35.0563 22.2312 36.6891 20.2375 36.6891ZM48.8891 36.6891C46.8781 36.6891 45.2453 35.0563 45.2453 33.0453C45.2453 31.0344 46.8781 29.4016 48.8891 29.4016C50.9 29.4016 52.5328 31.0344 52.5328 33.0453C52.5328 35.0563 50.9 36.6891 48.8891 36.6891ZM56.8125 21.5984V21.8047H49.8V16.1672H52.9625L56.8125 21.5984ZM47.2219 16.1672V23.0938C47.2219 23.7985 47.8063 24.3828 48.5109 24.3828H56.8125V32.0313H55.025C54.5438 29.075 51.9656 26.8235 48.8891 26.8235C47.0844 26.8235 45.4516 27.5969 44.3172 28.8344V16.1672H47.2219ZM41.7391 32.0485H26.3734C25.8922 29.0922 23.3141 26.8406 20.2375 26.8406C17.1609 26.8406 14.5828 29.0922 14.1016 32.0485H11.1969V19.5188C15.6484 18.9688 19.1375 15.325 19.4469 10.8219H41.7391V32.0485ZM10.0453 3.31095C13.8266 3.31095 16.9031 6.38751 16.9031 10.1688C16.9031 13.95 13.8266 17.0266 10.0453 17.0266C6.26406 17.0266 3.1875 13.95 3.1875 10.1688C3.1875 6.38751 6.26406 3.31095 10.0453 3.31095Z" fill="#D14532"/>
</svg>
