<svg width="85" height="28" viewBox="0 0 85 28" fill="none" xmlns="http://www.w3.org/2000/svg">
<g clip-path="url(#clip0_23_93)">
<path d="M-0.06604 2.04663C0.904398 2.48842 1.82052 3.41101 2.3129 4.84977C3.63852 8.72346 7.87478 11.3631 11.5458 9.35715C13.0003 8.5624 15.5097 9.42157 16.4553 12.1852C17.7809 16.0588 22.0171 18.6984 25.6884 16.6926C26.0633 16.4876 26.5081 16.3927 26.9785 16.4118V19.1679C25.5662 18.7209 24.0281 18.7885 22.5782 19.5806C21.1237 20.3755 18.6142 19.5163 17.6687 16.7527C16.3428 12.8789 12.1066 10.2393 8.43558 12.2452C6.9811 13.04 4.47179 12.1808 3.52607 9.4172C2.88236 7.53619 1.55232 5.94615 -0.06604 5.0377V2.04663Z" fill="#D14532"/>
<path d="M2.51801 0.108154C3.71013 1.04075 4.6664 2.36103 5.18213 3.86806C6.12788 6.63168 8.6372 7.49086 10.0916 6.6961C13.7627 4.69014 17.9989 7.32976 19.3245 11.2035C20.2703 13.9671 22.7795 14.8263 24.2343 14.0315C25.1319 13.5409 26.0638 13.3282 26.9785 13.3434V0.108154H2.51801Z" fill="#D14532"/>
<path d="M-0.06604 8.98315V11.9046C0.760319 12.7519 1.41885 13.8018 1.81606 14.9625C2.76182 17.7263 5.27113 18.5854 6.72557 17.7906C10.3966 15.7845 14.6329 18.4244 15.9586 22.298C16.9041 25.0616 19.4136 25.9207 20.8681 25.1259C22.9321 23.9981 25.1747 24.3389 26.9785 25.542V22.4884C25.9695 21.8692 24.8387 21.8012 24.0323 22.2422C20.361 24.2479 16.1248 21.6083 14.7993 17.7348C13.8535 14.971 11.3442 14.1119 9.88975 14.9066C6.2187 16.9126 1.9824 14.2729 0.656785 10.3992C0.470066 9.85361 0.222423 9.38225 -0.06604 8.98315Z" fill="#D14532"/>
<path d="M15.9012 27.1526C14.6404 26.2152 13.6261 24.8487 13.0893 23.2799C12.1435 20.5163 9.63422 19.6572 8.17974 20.4517C5.17418 22.0942 1.78974 20.6225 -0.06604 17.9092V27.1526H15.9012Z" fill="#D14532"/>
<path fill-rule="evenodd" clip-rule="evenodd" d="M40.096 5.87012C41.4789 5.87012 42.6868 6.0727 43.72 6.4777C44.7538 6.88268 45.6127 7.44123 46.2971 8.15347C46.981 8.85182 47.4911 9.65483 47.8259 10.5626C48.1752 11.4565 48.3499 12.3851 48.3499 13.3488V13.8096C48.3499 14.7314 48.1752 15.639 47.8259 16.533C47.4911 17.4267 46.981 18.2367 46.2971 18.963C45.6127 19.689 44.7538 20.2689 43.72 20.7016C42.6868 21.1347 41.4789 21.3512 40.096 21.3512H34.5657V5.87012H40.096ZM40.2847 18.5861H37.5404V8.63532H40.2847C41.0807 8.63532 41.7861 8.74713 42.4005 8.97058C43.0289 9.19402 43.5596 9.52215 43.9926 9.95515C44.4257 10.3881 44.7538 10.9117 44.977 11.5262C45.2145 12.1268 45.3334 12.8111 45.3334 13.5792C45.3334 14.3194 45.2145 14.9967 44.977 15.6114C44.7538 16.2118 44.4257 16.7356 43.9926 17.1823C43.5596 17.6293 43.0289 17.9783 42.4005 18.2297C41.7861 18.4672 41.0807 18.5861 40.2847 18.5861Z" fill="white"/>
<path d="M50.5528 20.3247C51.2788 21.1905 52.2987 21.6236 53.6112 21.6236H53.7371C54.6168 21.6236 55.3501 21.428 55.9366 21.0371C56.5231 20.6458 56.9629 20.0663 57.2561 19.2981C57.3374 19.0859 57.4072 18.8593 57.466 18.6182V21.2672H59.7702V9.87134H56.8582V16.5958C56.8582 17.336 56.642 17.9225 56.209 18.3556C55.7899 18.7884 55.2452 19.0049 54.5747 19.0049C53.9045 19.0049 53.3738 18.8023 52.9826 18.3975C52.5917 17.9783 52.3964 17.4197 52.3964 16.7216V9.87134H49.4844V16.4702C49.4844 18.174 49.8405 19.4589 50.5528 20.3247Z" fill="white"/>
<path d="M62.0674 21.267V9.89201H64.3719V12.6957C64.4395 12.4037 64.5232 12.1326 64.6233 11.8822C64.9308 11.1002 65.3845 10.5135 65.9849 10.1226C66.5996 9.73149 67.3608 9.53589 68.2685 9.53589H68.394C69.749 9.53589 70.7753 9.97583 71.4737 10.8557C72.1718 11.7215 72.5208 13.0205 72.5208 14.7522V21.267H69.6092V14.5008C69.6092 13.8025 69.4066 13.2369 69.0018 12.804C68.6106 12.371 68.0659 12.1545 67.3675 12.1545C66.6551 12.1545 66.0756 12.3779 65.6289 12.8248C65.1958 13.2578 64.9796 13.8444 64.9796 14.5846V21.267H62.0674Z" fill="white"/>
<path fill-rule="evenodd" clip-rule="evenodd" d="M77.1177 21.1626C77.8582 21.4977 78.7171 21.6654 79.6945 21.6654C80.6301 21.6654 81.4613 21.5046 82.1873 21.1835C82.9279 20.8623 83.535 20.4084 84.0099 19.8218C84.4848 19.2353 84.806 18.5509 84.9737 17.7688H82.2922C82.1664 18.1879 81.8801 18.5439 81.4334 18.8372C80.9864 19.1168 80.4069 19.2563 79.6945 19.2563C78.9824 19.2563 78.3956 19.1025 77.935 18.7953C77.474 18.4742 77.1316 18.0411 76.9084 17.4964C76.7598 17.1255 76.6607 16.7204 76.6106 16.2816H85.1623V15.2341C85.1623 14.2286 84.9525 13.2929 84.5337 12.427C84.1148 11.5473 83.4862 10.842 82.6483 10.3112C81.8243 9.76662 80.7978 9.49414 79.5686 9.49414C78.6331 9.49414 77.8094 9.66178 77.0971 9.99701C76.3847 10.3182 75.7842 10.7581 75.2954 11.3167C74.8205 11.8615 74.4575 12.4899 74.2061 13.2022C73.9686 13.9003 73.85 14.6267 73.85 15.3809V15.7788C73.85 16.5051 73.9686 17.2171 74.2061 17.9155C74.4575 18.6137 74.8205 19.2493 75.2954 19.8218C75.7842 20.3805 76.3917 20.8275 77.1177 21.1626ZM76.6607 14.5009C76.7165 14.1809 76.7993 13.8876 76.9084 13.6211C77.037 13.3189 77.1959 13.0556 77.3858 12.8309C77.5465 12.6404 77.7297 12.4778 77.935 12.3432C78.3817 12.05 78.9263 11.9034 79.5686 11.9034C80.2113 11.9034 80.742 12.043 81.1608 12.3223C81.5938 12.6015 81.9153 12.9996 82.1245 13.5164C82.1773 13.6465 82.2234 13.7834 82.2628 13.9268C82.2822 13.9963 82.2995 14.0672 82.3156 14.1398C82.3414 14.2562 82.3629 14.3765 82.3805 14.5009H76.6607Z" fill="white"/>
</g>
<defs>
<clipPath id="clip0_23_93">
<rect width="85" height="27.2936" fill="white"/>
</clipPath>
</defs>
</svg>
