<svg width="33" height="29" viewBox="0 0 33 29" fill="none" xmlns="http://www.w3.org/2000/svg">
<path d="M31.3333 9.16879C31.3333 13.1296 29.0163 17.4127 23.9739 21.9041L23.9735 21.9044C21.7098 23.9191 19.2463 25.7027 16.6205 27.2279C16.1184 26.9466 12.4986 24.8694 8.96035 21.6448C5.23707 18.2516 1.90991 13.8649 1.90991 9.16879C1.90991 7.59447 2.41019 6.05877 3.34175 4.77921C4.27346 3.49947 5.5899 2.54029 7.10608 2.03995C8.62239 1.53957 10.2597 1.52417 11.7854 1.99601C13.311 2.4678 14.6458 3.40215 15.6019 4.66429L16.6216 6.01029L17.6413 4.66429C18.5975 3.40215 19.9322 2.4678 21.4578 1.99601C22.9835 1.52417 24.6209 1.53957 26.1372 2.03995C27.6534 2.54029 28.9698 3.49947 29.9015 4.77921C30.8331 6.05877 31.3333 7.59447 31.3333 9.16879Z" fill="white" stroke="#053361" stroke-width="2.55856"/>
</svg>
