<svg width="86" height="29" viewBox="0 0 86 29" fill="none" xmlns="http://www.w3.org/2000/svg">
<path d="M0 2.91644C0.970438 3.35823 1.88656 4.28082 2.37894 5.71958C3.70456 9.59327 7.94082 12.2329 11.6119 10.227C13.0663 9.43221 15.5758 10.2914 16.5214 13.055C17.8469 16.9286 22.0832 19.5682 25.7545 17.5624C26.1293 17.3574 26.5742 17.2625 27.0445 17.2816V20.0377C25.6322 19.5907 24.0941 19.6583 22.6442 20.4504C21.1898 21.2453 18.6803 20.3861 17.7347 17.6225C16.4088 13.7487 12.1727 11.1091 8.50162 13.1151C7.04714 13.9098 4.53783 13.0506 3.59211 10.287C2.9484 8.406 1.61836 6.81597 0 5.90752V2.91644Z" fill="#D14532"/>
<path d="M2.58423 0.977783C3.77635 1.91037 4.73263 3.23066 5.24835 4.73769C6.19411 7.50131 8.70342 8.36049 10.1579 7.56573C13.8289 5.55977 18.0651 8.19939 19.3907 12.0731C20.3365 14.8367 22.8457 15.6959 24.3005 14.9011C25.1981 14.4105 26.1301 14.1978 27.0447 14.2131V0.977783H2.58423Z" fill="#D14532"/>
<path d="M0 9.85284V12.7743C0.826359 13.6216 1.48489 14.6715 1.8821 15.8322C2.82786 18.596 5.33717 19.4551 6.79161 18.6603C10.4627 16.6542 14.699 19.2941 16.0246 23.1677C16.9702 25.9313 19.4797 26.7904 20.9341 25.9956C22.9981 24.8677 25.2407 25.2086 27.0445 26.4116V23.3581C26.0356 22.7388 24.9047 22.6709 24.0984 23.1119C20.4271 25.1176 16.1908 22.478 14.8653 18.6045C13.9195 15.8407 11.4102 14.9816 9.95579 15.7763C6.28474 17.7823 2.04844 15.1426 0.722825 11.2689C0.536106 10.7233 0.288463 10.2519 0 9.85284Z" fill="#D14532"/>
<path d="M15.9673 28.0222C14.7065 27.0849 13.6922 25.7184 13.1553 24.1496C12.2096 21.386 9.70026 20.5268 8.24578 21.3214C5.24022 22.9638 1.85578 21.4921 0 18.7788V28.0222H15.9673Z" fill="#D14532"/>
<path fill-rule="evenodd" clip-rule="evenodd" d="M40.1621 6.73975C41.545 6.73975 42.7529 6.94233 43.7861 7.34733C44.8199 7.75231 45.6788 8.31085 46.3632 9.0231C47.0471 9.72145 47.5572 10.5245 47.892 11.4322C48.2413 12.3261 48.416 13.2547 48.416 14.2184V14.6792C48.416 15.601 48.2413 16.5086 47.892 17.4026C47.5572 18.2963 47.0471 19.1063 46.3632 19.8327C45.6788 20.5587 44.8199 21.1385 43.7861 21.5713C42.7529 22.0043 41.545 22.2208 40.1621 22.2208H34.6318V6.73975H40.1621ZM40.3508 19.4557H37.6065V9.50495H40.3508C41.1468 9.50495 41.8522 9.61676 42.4666 9.84021C43.095 10.0636 43.6257 10.3918 44.0587 10.8248C44.4918 11.2577 44.8199 11.7814 45.0431 12.3959C45.2806 12.9965 45.3995 13.6807 45.3995 14.4488C45.3995 15.1891 45.2806 15.8664 45.0431 16.481C44.8199 17.0815 44.4918 17.6052 44.0587 18.0519C43.6257 18.4989 43.095 18.848 42.4666 19.0994C41.8522 19.3368 41.1468 19.4557 40.3508 19.4557Z" fill="#081314"/>
<path d="M50.6189 21.1943C51.3449 22.0601 52.3648 22.4932 53.6773 22.4932H53.8032C54.6829 22.4932 55.4162 22.2976 56.0027 21.9067C56.5892 21.5155 57.029 20.9359 57.3222 20.1678C57.4035 19.9555 57.4733 19.729 57.5321 19.4879V22.1369H59.8363V10.741H56.9243V17.4654C56.9243 18.2057 56.7081 18.7922 56.2751 19.2252C55.856 19.658 55.3113 19.8745 54.6408 19.8745C53.9706 19.8745 53.4399 19.6719 53.0487 19.2671C52.6578 18.848 52.4625 18.2894 52.4625 17.5913V10.741H49.5505V17.3399C49.5505 19.0436 49.9066 20.3285 50.6189 21.1943Z" fill="#081314"/>
<path d="M62.1335 22.1368V10.7618H64.438V13.5655C64.5057 13.2735 64.5894 13.0024 64.6894 12.752C64.9969 11.97 65.4506 11.3833 66.0511 10.9924C66.6658 10.6013 67.427 10.4057 68.3346 10.4057H68.4602C69.8152 10.4057 70.8414 10.8456 71.5398 11.7255C72.2379 12.5913 72.587 13.8903 72.587 15.622V22.1368H69.6754V15.3706C69.6754 14.6723 69.4728 14.1067 69.0679 13.6738C68.6767 13.2408 68.1321 13.0243 67.4337 13.0243C66.7213 13.0243 66.1418 13.2478 65.6951 13.6946C65.262 14.1276 65.0458 14.7142 65.0458 15.4544V22.1368H62.1335Z" fill="#081314"/>
<path fill-rule="evenodd" clip-rule="evenodd" d="M77.1839 22.0323C77.9245 22.3674 78.7833 22.5351 79.7607 22.5351C80.6963 22.5351 81.5275 22.3743 82.2535 22.0532C82.9941 21.732 83.6012 21.278 84.0761 20.6915C84.551 20.105 84.8722 19.4206 85.0399 18.6385H82.3585C82.2326 19.0576 81.9463 19.4136 81.4996 19.7068C81.0526 19.9865 80.4731 20.126 79.7607 20.126C79.0487 20.126 78.4619 19.9722 78.0012 19.665C77.5402 19.3438 77.1979 18.9108 76.9747 18.3661C76.8261 17.9952 76.7269 17.5901 76.6769 17.1513H85.2285V16.1038C85.2285 15.0983 85.0187 14.1626 84.5999 13.2966C84.1811 12.4169 83.5524 11.7116 82.7145 11.1809C81.8905 10.6363 80.864 10.3638 79.6349 10.3638C78.6993 10.3638 77.8756 10.5315 77.1633 10.8667C76.4509 11.1879 75.8505 11.6278 75.3616 12.1864C74.8867 12.7312 74.5237 13.3596 74.2723 14.0718C74.0348 14.77 73.9163 15.4964 73.9163 16.2506V16.6484C73.9163 17.3748 74.0348 18.0868 74.2723 18.7852C74.5237 19.4833 74.8867 20.119 75.3616 20.6915C75.8505 21.2501 76.4579 21.6972 77.1839 22.0323ZM76.7269 15.3706C76.7827 15.0506 76.8655 14.7573 76.9747 14.4907C77.1032 14.1885 77.2621 13.9252 77.452 13.7006C77.6127 13.5101 77.7959 13.3474 78.0012 13.2129C78.4479 12.9197 78.9926 12.7731 79.6349 12.7731C80.2775 12.7731 80.8082 12.9127 81.227 13.192C81.6601 13.4712 81.9815 13.8693 82.1908 14.3861C82.2435 14.5162 82.2896 14.653 82.329 14.7965C82.3485 14.866 82.3657 14.9369 82.3818 15.0095C82.4076 15.1259 82.4291 15.2462 82.4467 15.3706H76.7269Z" fill="#081314"/>
</svg>
