<svg width="82" height="82" viewBox="0 0 82 82" fill="none" xmlns="http://www.w3.org/2000/svg">
<circle cx="40.6923" cy="40.6154" r="40.6154" fill="white"/>
<path d="M48.0875 31.3559C48.0313 31.1874 47.9239 31.0407 47.7801 30.9363C47.6364 30.8319 47.4636 30.775 47.2859 30.7738H43.0925L41.8016 26.7913C41.7461 26.6224 41.6387 26.4755 41.4948 26.3713C41.3508 26.2671 41.1777 26.211 41 26.211C40.8223 26.211 40.6491 26.2671 40.5052 26.3713C40.3613 26.4755 40.2539 26.6224 40.1984 26.7913L38.9075 30.7738H34.7141C34.5364 30.775 34.3636 30.8319 34.2199 30.9363C34.0761 31.0407 33.9687 31.1874 33.9125 31.3559C33.8564 31.5261 33.8565 31.7098 33.9127 31.8799C33.9689 32.0501 34.0783 32.1977 34.2247 32.3009L37.6081 34.7647L36.3172 38.7472C36.2615 38.9166 36.2608 39.0993 36.3154 39.2691C36.37 39.4389 36.4769 39.587 36.6209 39.6922C36.7665 39.7951 36.9404 39.8504 37.1187 39.8504C37.2971 39.8504 37.471 39.7951 37.6166 39.6922L41 37.2284L44.3834 39.6922C44.5303 39.7929 44.7033 39.8486 44.8812 39.8525C45.0597 39.8511 45.2334 39.7952 45.3791 39.6922C45.5231 39.587 45.63 39.4389 45.6846 39.2691C45.7392 39.0993 45.7385 38.9166 45.6828 38.7472L44.3919 34.7647L47.7753 32.3009C47.9217 32.1977 48.0311 32.0501 48.0873 31.8799C48.1435 31.7098 48.1436 31.5261 48.0875 31.3559ZM42.9069 33.7606C42.762 33.8652 42.6538 34.0129 42.5977 34.1826C42.5417 34.3523 42.5406 34.5353 42.5947 34.7056L43.2781 36.7981L41.4978 35.4988C41.3528 35.3945 41.1786 35.3384 41 35.3384C40.8214 35.3384 40.6472 35.3945 40.5022 35.4988L38.7219 36.7981L39.4053 34.7056C39.4594 34.5353 39.4583 34.3523 39.4022 34.1826C39.3462 34.0129 39.238 33.8652 39.0931 33.7606L37.3128 32.4613H39.515C39.6932 32.4623 39.8671 32.4064 40.0113 32.3017C40.1555 32.1969 40.2624 32.0489 40.3166 31.8791L41 29.7866L41.6834 31.8791C41.7376 32.0489 41.8445 32.1969 41.9887 32.3017C42.1329 32.4064 42.3068 32.4623 42.485 32.4613H44.6872L42.9069 33.7606Z" fill="#D14532"/>
<path d="M41 22.6569C38.1195 22.6561 35.35 23.7681 33.2699 25.7606C31.1897 27.7532 29.9597 30.4723 29.8367 33.3501C29.7137 36.228 30.7071 39.0422 32.6096 41.205C34.5121 43.3678 37.1765 44.7121 40.0466 44.9572C40.3672 44.9825 40.6794 44.9994 41 44.9994C41.2869 44.9994 41.5822 44.9825 41.8691 44.9572H41.9534V44.9488C44.8224 44.7037 47.4858 43.3599 49.3876 41.1979C51.2893 39.0358 52.2823 36.2227 52.1593 33.3459C52.0362 30.4691 50.8066 27.7511 48.7272 25.7593C46.6479 23.7675 43.8794 22.656 41 22.6569ZM49.2772 38.4519C49.275 38.4519 49.2728 38.4528 49.2712 38.4543C49.2696 38.4559 49.2688 38.4581 49.2688 38.4603C48.514 39.8129 47.4381 40.9591 46.1359 41.7978C44.8337 42.6365 43.3452 43.142 41.8016 43.2697L41.7931 43.2781H41.7847C41.2571 43.3301 40.7255 43.3273 40.1984 43.2697C38.1589 43.0959 36.2303 42.2666 34.7011 40.9059C33.1719 39.5451 32.1242 37.7259 31.7147 35.7204C31.3051 33.7148 31.5557 31.6305 32.429 29.7791C33.3022 27.9278 34.7512 26.4088 36.5594 25.4493C38.3675 24.4897 40.4377 24.1412 42.4604 24.4558C44.483 24.7704 46.3495 25.7312 47.7808 27.1945C49.2121 28.6579 50.1314 30.5452 50.4011 32.5744C50.6708 34.6035 50.2765 36.6654 49.2772 38.4519Z" fill="#D14532"/>
<path d="M63.68 58.4909L60.5075 53.5719C58.2378 50.0703 55.9709 46.5631 53.7069 43.0503C53.8841 42.9828 54.0866 42.9069 54.2891 42.8394C54.7464 42.7478 55.1809 42.5664 55.5676 42.3057C55.9543 42.045 56.2855 41.7102 56.5419 41.3206C56.6852 40.8801 56.7404 40.4157 56.7042 39.9539C56.668 39.492 56.5412 39.0419 56.3309 38.6291C56.1326 38.1972 56.0263 37.7289 56.0188 37.2537C56.2277 36.8476 56.5178 36.4887 56.8709 36.1991C57.2465 35.9146 57.5622 35.5587 57.7996 35.1518C58.0371 34.7449 58.1918 34.295 58.2547 33.8281C58.1927 33.3621 58.0384 32.9131 57.8008 32.5075C57.5632 32.1018 57.2471 31.7476 56.8709 31.4656C56.5191 31.1714 56.2294 30.81 56.0188 30.4025C56.0263 29.9274 56.1326 29.459 56.3309 29.0272C56.541 28.6159 56.6678 28.1671 56.704 27.7067C56.7402 27.2462 56.6851 26.7832 56.5419 26.3441C56.2847 25.9552 55.9534 25.6208 55.5668 25.3602C55.1802 25.0996 54.746 24.9178 54.2891 24.8253C53.8346 24.7104 53.4074 24.5068 53.0319 24.2262C52.8451 23.7969 52.7421 23.3358 52.7281 22.8678C52.7408 22.4028 52.6617 21.9399 52.4952 21.5055C52.3287 21.0712 52.0781 20.6739 51.7578 20.3366C50.9514 19.8618 49.9899 19.7253 49.0831 19.9569C48.6239 20.0517 48.1502 20.0517 47.6909 19.9569C47.3375 19.6608 47.0476 19.2963 46.8388 18.8853C46.6469 18.4547 46.3713 18.0666 46.028 17.7436C45.6847 17.4206 45.2805 17.1691 44.8391 17.0037C44.3819 16.9644 43.9215 17.0158 43.4843 17.1548C43.047 17.2938 42.6415 17.5177 42.2909 17.8137C41.9077 18.1058 41.4682 18.3155 41 18.4297C40.5318 18.3155 40.0923 18.1058 39.7091 17.8137C39.3598 17.5184 38.9557 17.2948 38.5199 17.1558C38.0841 17.0168 37.6252 16.9651 37.1694 17.0037C36.7261 17.1676 36.3201 17.4185 35.9752 17.7416C35.6304 18.0648 35.3536 18.4536 35.1613 18.8853C34.952 19.2938 34.6655 19.6577 34.3175 19.9569C33.8554 20.0515 33.379 20.0515 32.9169 19.9569C32.0129 19.7252 31.054 19.8618 30.2506 20.3366C29.9268 20.6735 29.6734 21.0717 29.5053 21.5078C29.3373 21.9439 29.2579 22.4091 29.2719 22.8762C29.2633 23.3431 29.1569 23.803 28.9597 24.2262C28.5918 24.5072 28.1694 24.7084 27.7194 24.8169C26.7943 25.0039 25.9812 25.5501 25.4581 26.3356C25.3148 26.7761 25.2596 27.2406 25.2958 27.7024C25.332 28.1642 25.4588 28.6144 25.6691 29.0272C25.8674 29.459 25.9737 29.9274 25.9813 30.4025C25.7706 30.81 25.4809 31.1714 25.1291 31.4656C24.7529 31.7476 24.4368 32.1018 24.1992 32.5075C23.9616 32.9131 23.8073 33.3621 23.7453 33.8281C23.8082 34.295 23.9629 34.7449 24.2004 35.1518C24.4378 35.5587 24.7535 35.9146 25.1291 36.1991C25.4822 36.4887 25.7723 36.8476 25.9813 37.2537C25.9737 37.7289 25.8674 38.1972 25.6691 38.6291C25.459 39.0404 25.3322 39.4891 25.296 39.9496C25.2598 40.41 25.3149 40.8731 25.4581 41.3122C25.7132 41.7029 26.044 42.0386 26.4309 42.2994C26.8178 42.5603 27.2531 42.741 27.7109 42.8309C27.905 42.9069 28.1075 42.9744 28.2931 43.0503C26.0234 46.5603 23.7566 50.0675 21.4925 53.5719L18.32 58.4909C18.2285 58.6288 18.1804 58.7909 18.1819 58.9563C18.1834 59.1217 18.2344 59.2829 18.3284 59.4191C18.4201 59.5552 18.5498 59.6613 18.7013 59.7243C18.8528 59.7873 19.0195 59.8044 19.1806 59.7734L24.9434 58.7019L26.3441 64.4056C26.3847 64.565 26.4711 64.709 26.5925 64.8199C26.7139 64.9308 26.8651 65.0039 27.0275 65.03C27.0719 65.0398 27.1171 65.0454 27.1625 65.0469C27.3039 65.0478 27.4432 65.0127 27.5672 64.9447C27.6912 64.8768 27.7959 64.7784 27.8713 64.6587L36.9669 50.5766C37.0344 50.5934 37.0934 50.6356 37.1609 50.6525C37.2992 50.6855 37.4407 50.7025 37.5828 50.7031C38.3574 50.6177 39.0932 50.3199 39.7091 49.8425C40.0923 49.5504 40.5318 49.3407 41 49.2266C41.4682 49.3407 41.9077 49.5504 42.2909 49.8425C42.6417 50.1409 43.0485 50.3662 43.4875 50.5053C43.9265 50.6444 44.3889 50.6944 44.8475 50.6525C44.915 50.6356 44.9741 50.5934 45.0331 50.5766L54.1288 64.6587C54.2041 64.7784 54.3088 64.8768 54.4328 64.9447C54.5568 65.0127 54.6961 65.0478 54.8375 65.0469C54.8829 65.0454 54.9281 65.0398 54.9725 65.03C55.1349 65.0039 55.2861 64.9308 55.4075 64.8199C55.5289 64.709 55.6153 64.565 55.6559 64.4056L57.0566 58.7019L62.8194 59.7734C62.9805 59.8035 63.1469 59.786 63.2982 59.7231C63.4496 59.6602 63.5793 59.5545 63.6716 59.4191C63.7656 59.2829 63.8166 59.1217 63.8181 58.9563C63.8196 58.7909 63.7715 58.6288 63.68 58.4909ZM27.5169 62.0938L26.3947 57.5291C26.3443 57.3197 26.2157 57.1375 26.0353 57.0198C25.8549 56.9022 25.6363 56.858 25.4244 56.8962L20.8006 57.7569L22.91 54.4916C25.0194 51.2178 27.1344 47.9441 29.255 44.6703C29.2642 44.7091 29.2698 44.7486 29.2719 44.7884C29.2592 45.2534 29.3383 45.7164 29.5048 46.1507C29.6713 46.5851 29.9219 46.9823 30.2422 47.3197C31.0488 47.794 32.0101 47.9305 32.9169 47.6994C33.3761 47.6046 33.8498 47.6046 34.3091 47.6994C34.6645 47.9935 34.9547 48.3584 35.1613 48.7709C35.3216 49.0156 35.4819 49.2603 35.6506 49.4966L27.5169 62.0938ZM44.7125 48.8384C44.6443 48.9158 44.557 48.974 44.4594 49.0072C44.2231 49.0578 43.5988 48.6781 43.1938 48.4166C42.5594 47.924 41.7991 47.6199 41 47.5391C40.2009 47.6199 39.4406 47.924 38.8063 48.4166C38.4013 48.6781 37.7769 49.0662 37.5491 49.0156C37.4456 48.976 37.3531 48.9124 37.2791 48.83C37.0178 48.5376 36.7886 48.2179 36.5956 47.8766C36.2465 47.1802 35.7123 46.5934 35.0516 46.1806C34.668 46.006 34.2493 45.9223 33.8281 45.9359C33.4612 45.9431 33.095 45.9712 32.7313 46.0203C32.2081 46.0794 31.4994 46.1637 31.2969 46.0034C31.0944 45.8431 31.01 45.1259 30.9509 44.6028C30.9407 43.8127 30.7098 43.0412 30.2844 42.3753C30.2172 42.2911 30.1408 42.2146 30.0566 42.1475C30.0244 42.1202 29.9906 42.0948 29.9553 42.0716L29.9469 42.0631H29.9384C29.434 41.6942 28.8685 41.4172 28.2678 41.2447C27.77 41.0675 27.095 40.8312 26.9769 40.5781C26.8588 40.3419 27.095 39.6753 27.2638 39.1859C27.6017 38.4684 27.7276 37.6692 27.6266 36.8825C27.3788 36.1435 26.925 35.4907 26.3188 35.0009C25.9475 34.6297 25.4328 34.115 25.4328 33.8281C25.4328 33.5413 25.9475 33.0266 26.3188 32.6553C26.925 32.1655 27.3788 31.5127 27.6266 30.7737C27.7276 29.9871 27.6017 29.1879 27.2638 28.4703C27.095 27.9809 26.8588 27.3144 26.9769 27.0697C27.095 26.825 27.7784 26.5887 28.2763 26.4116C29.0369 26.2327 29.7306 25.8405 30.2759 25.2809C30.7076 24.6206 30.9418 23.8507 30.9509 23.0619C31.01 22.5387 31.0859 21.83 31.2969 21.6612C31.5078 21.4925 32.2081 21.5769 32.7313 21.6359C33.5045 21.8007 34.3084 21.7451 35.0516 21.4756C35.7143 21.0653 36.2491 20.4779 36.5956 19.7797C36.8741 19.3241 37.2622 18.7081 37.5406 18.6491C37.7769 18.59 38.4013 18.9866 38.8063 19.2397C39.4406 19.7323 40.2009 20.0364 41 20.1172C41.7991 20.0364 42.5594 19.7323 43.1938 19.2397C43.5988 18.9866 44.2147 18.5984 44.4594 18.6491C44.7378 18.7081 45.1259 19.3241 45.4044 19.7797C45.7509 20.4779 46.2857 21.0653 46.9484 21.4756C47.6916 21.7451 48.4956 21.8007 49.2688 21.6359C49.7919 21.5769 50.5006 21.4925 50.7031 21.6528C50.9056 21.8131 50.99 22.5303 51.0491 23.0534C51.0593 23.8435 51.2902 24.6151 51.7156 25.2809C52.2691 25.8405 52.9673 26.2349 53.7322 26.42C54.23 26.5887 54.905 26.825 55.0231 27.0781C55.1413 27.3144 54.905 27.9809 54.7363 28.4703C54.3983 29.1879 54.2724 29.9871 54.3734 30.7737C54.6212 31.5127 55.075 32.1655 55.6813 32.6553C56.0525 33.0266 56.5672 33.5413 56.5672 33.8281C56.5672 34.115 56.0525 34.6297 55.6813 35.0009C55.075 35.4907 54.6212 36.1435 54.3734 36.8825C54.2724 37.6692 54.3983 38.4684 54.7363 39.1859C54.905 39.6753 55.1413 40.3419 55.0231 40.5866C54.905 40.8313 54.2216 41.0759 53.7322 41.2447C53.1004 41.4173 52.5075 41.7095 51.9856 42.1053C51.8921 42.1889 51.8047 42.2792 51.7241 42.3753C51.2924 43.0356 51.0582 43.8055 51.0491 44.5944C50.99 45.1175 50.9141 45.8262 50.7031 45.995C50.4922 46.1637 49.7919 46.0794 49.2688 46.0203C48.4959 45.8514 47.6908 45.907 46.9484 46.1806C46.2877 46.5934 45.7535 47.1802 45.4044 47.8766C45.2094 48.2214 44.9774 48.5439 44.7125 48.8384ZM56.5756 56.8962C56.3637 56.858 56.1451 56.9022 55.9647 57.0198C55.7843 57.1375 55.6557 57.3197 55.6053 57.5291L54.4831 62.0938L46.3494 49.4966C46.5181 49.2603 46.6784 49.0156 46.8388 48.7709C47.0455 48.3609 47.3324 47.9966 47.6825 47.6994C48.1446 47.6047 48.6211 47.6047 49.0831 47.6994C49.9871 47.931 50.946 47.7945 51.7494 47.3197C52.0725 46.9839 52.3254 46.5872 52.4935 46.1526C52.6615 45.718 52.7413 45.2542 52.7281 44.7884C52.7296 44.7486 52.7353 44.709 52.745 44.6703C54.8628 47.9441 56.9778 51.2178 59.09 54.4916L61.1994 57.7569L56.5756 56.8962Z" fill="#D14532"/>
</svg>
