<svg width="46" height="50" viewBox="0 0 46 50" fill="none" xmlns="http://www.w3.org/2000/svg">
<path d="M30.0875 15.3559C30.0313 15.1874 29.9239 15.0407 29.7801 14.9363C29.6364 14.8319 29.4636 14.775 29.2859 14.7738H25.0925L23.8016 10.7913C23.7461 10.6224 23.6387 10.4755 23.4948 10.3713C23.3508 10.2671 23.1777 10.211 23 10.211C22.8223 10.211 22.6491 10.2671 22.5052 10.3713C22.3613 10.4755 22.2539 10.6224 22.1984 10.7913L20.9075 14.7738H16.7141C16.5364 14.775 16.3636 14.8319 16.2199 14.9363C16.0761 15.0407 15.9687 15.1874 15.9125 15.3559C15.8564 15.5261 15.8565 15.7098 15.9127 15.8799C15.9689 16.0501 16.0783 16.1977 16.2247 16.3009L19.6081 18.7647L18.3172 22.7472C18.2615 22.9166 18.2608 23.0993 18.3154 23.2691C18.37 23.4389 18.4769 23.587 18.6209 23.6922C18.7665 23.7951 18.9404 23.8504 19.1187 23.8504C19.2971 23.8504 19.471 23.7951 19.6166 23.6922L23 21.2284L26.3834 23.6922C26.5303 23.7929 26.7033 23.8486 26.8812 23.8525C27.0597 23.8511 27.2334 23.7952 27.3791 23.6922C27.5231 23.587 27.63 23.4389 27.6846 23.2691C27.7392 23.0993 27.7385 22.9166 27.6828 22.7472L26.3919 18.7647L29.7753 16.3009C29.9217 16.1977 30.0311 16.0501 30.0873 15.8799C30.1435 15.7098 30.1436 15.5261 30.0875 15.3559ZM24.9069 17.7606C24.762 17.8652 24.6538 18.0129 24.5977 18.1826C24.5417 18.3523 24.5406 18.5353 24.5947 18.7056L25.2781 20.7981L23.4978 19.4988C23.3528 19.3945 23.1786 19.3384 23 19.3384C22.8214 19.3384 22.6472 19.3945 22.5022 19.4988L20.7219 20.7981L21.4053 18.7056C21.4594 18.5353 21.4583 18.3523 21.4022 18.1826C21.3462 18.0129 21.238 17.8652 21.0931 17.7606L19.3128 16.4613H21.515C21.6932 16.4623 21.8671 16.4064 22.0113 16.3017C22.1555 16.1969 22.2624 16.0489 22.3166 15.8791L23 13.7866L23.6834 15.8791C23.7376 16.0489 23.8445 16.1969 23.9887 16.3017C24.1329 16.4064 24.3068 16.4623 24.485 16.4613H26.6872L24.9069 17.7606Z" fill="#D14532"/>
<path d="M23 6.65688C20.1195 6.65608 17.35 7.76805 15.2699 9.76061C13.1897 11.7532 11.9597 14.4723 11.8367 17.3501C11.7136 20.228 12.7071 23.0422 14.6096 25.205C16.512 27.3678 19.1765 28.7121 22.0465 28.9572C22.3672 28.9825 22.6794 28.9994 23 28.9994C23.2869 28.9994 23.5822 28.9825 23.869 28.9572H23.9534V28.9488C26.8224 28.7037 29.4858 27.3599 31.3875 25.1979C33.2893 23.0358 34.2823 20.2227 34.1592 17.3459C34.0362 14.4691 32.8066 11.7511 30.7272 9.75931C28.6478 7.76754 25.8794 6.65603 23 6.65688ZM31.2772 22.4519C31.2749 22.4519 31.2728 22.4528 31.2712 22.4543C31.2696 22.4559 31.2687 22.4581 31.2687 22.4603C30.514 23.8129 29.4381 24.9591 28.1359 25.7978C26.8337 26.6365 25.3452 27.142 23.8015 27.2697L23.7931 27.2781H23.7847C23.2571 27.3301 22.7255 27.3273 22.1984 27.2697C20.1588 27.0959 18.2303 26.2666 16.7011 24.9059C15.1719 23.5451 14.1242 21.7259 13.7147 19.7204C13.3051 17.7148 13.5557 15.6305 14.429 13.7791C15.3022 11.9278 16.7512 10.4088 18.5594 9.44926C20.3675 8.48973 22.4377 8.14121 24.4603 8.4558C26.483 8.77038 28.3495 9.73118 29.7808 11.1945C31.2121 12.6579 32.1314 14.5452 32.4011 16.5744C32.6708 18.6035 32.2765 20.6654 31.2772 22.4519Z" fill="#D14532"/>
<path d="M45.68 42.4909L42.5075 37.5719C40.2378 34.0703 37.9709 30.5631 35.7069 27.0503C35.8841 26.9828 36.0866 26.9069 36.2891 26.8394C36.7464 26.7478 37.1809 26.5664 37.5676 26.3057C37.9543 26.045 38.2855 25.7102 38.5419 25.3206C38.6852 24.8801 38.7404 24.4157 38.7042 23.9539C38.668 23.492 38.5412 23.0419 38.3309 22.6291C38.1326 22.1972 38.0263 21.7289 38.0188 21.2537C38.2277 20.8476 38.5178 20.4887 38.8709 20.1991C39.2465 19.9146 39.5622 19.5587 39.7996 19.1518C40.0371 18.7449 40.1918 18.295 40.2547 17.8281C40.1927 17.3621 40.0384 16.9131 39.8008 16.5075C39.5632 16.1018 39.2471 15.7476 38.8709 15.4656C38.5191 15.1714 38.2294 14.81 38.0188 14.4025C38.0263 13.9274 38.1326 13.459 38.3309 13.0272C38.541 12.6159 38.6678 12.1671 38.704 11.7067C38.7402 11.2462 38.6851 10.7832 38.5419 10.3441C38.2847 9.95516 37.9534 9.62083 37.5668 9.36021C37.1802 9.0996 36.746 8.91783 36.2891 8.82531C35.8346 8.71036 35.4074 8.50678 35.0319 8.22625C34.8451 7.79688 34.7421 7.33582 34.7281 6.86781C34.7408 6.40281 34.6617 5.93987 34.4952 5.50551C34.3287 5.07116 34.0781 4.67392 33.7578 4.33656C32.9514 3.8618 31.9899 3.72531 31.0831 3.95687C30.6239 4.05167 30.1502 4.05167 29.6909 3.95687C29.3375 3.66082 29.0476 3.29632 28.8388 2.88531C28.6469 2.45474 28.3713 2.06664 28.028 1.74361C27.6847 1.42058 27.2805 1.16908 26.8391 1.00375C26.3819 0.964449 25.9215 1.01577 25.4843 1.15477C25.047 1.29376 24.6415 1.5177 24.2909 1.81375C23.9077 2.10585 23.4682 2.31555 23 2.42969C22.5318 2.31555 22.0923 2.10585 21.7091 1.81375C21.3598 1.51836 20.9557 1.29476 20.5199 1.15577C20.0841 1.01678 19.6252 0.965117 19.1694 1.00375C18.7261 1.16763 18.3201 1.41851 17.9752 1.74165C17.6304 2.06478 17.3536 2.45363 17.1613 2.88531C16.952 3.29376 16.6655 3.65769 16.3175 3.95687C15.8554 4.05153 15.379 4.05153 14.9169 3.95687C14.0129 3.7252 13.054 3.86176 12.2506 4.33656C11.9268 4.67351 11.6734 5.07169 11.5053 5.50778C11.3373 5.94387 11.2579 6.40911 11.2719 6.87625C11.2633 7.34312 11.1569 7.803 10.9597 8.22625C10.5918 8.50725 10.1694 8.70841 9.71938 8.81687C8.79434 9.00392 7.98118 9.55007 7.45813 10.3356C7.31476 10.7761 7.25959 11.2406 7.29578 11.7024C7.33198 12.1642 7.45882 12.6144 7.66906 13.0272C7.86739 13.459 7.9737 13.9274 7.98125 14.4025C7.77065 14.81 7.48094 15.1714 7.12906 15.4656C6.75292 15.7476 6.4368 16.1018 6.1992 16.5075C5.9616 16.9131 5.8073 17.3621 5.74531 17.8281C5.80823 18.295 5.96288 18.7449 6.20036 19.1518C6.43784 19.5587 6.75347 19.9146 7.12906 20.1991C7.48223 20.4887 7.77226 20.8476 7.98125 21.2537C7.9737 21.7289 7.86739 22.1972 7.66906 22.6291C7.45898 23.0404 7.3322 23.4891 7.296 23.9496C7.2598 24.41 7.3149 24.8731 7.45813 25.3122C7.71322 25.7029 8.04399 26.0386 8.4309 26.2994C8.81782 26.5603 9.25306 26.741 9.71094 26.8309C9.905 26.9069 10.1075 26.9744 10.2931 27.0503C8.02344 30.5603 5.75656 34.0675 3.4925 37.5719L0.320002 42.4909C0.228491 42.6288 0.180385 42.7909 0.181888 42.9563C0.183392 43.1217 0.234439 43.2829 0.32844 43.4191C0.420109 43.5552 0.549761 43.6613 0.701276 43.7243C0.85279 43.7873 1.01948 43.8044 1.18063 43.7734L6.94344 42.7019L8.34406 48.4056C8.38474 48.565 8.47109 48.709 8.59251 48.8199C8.71393 48.9308 8.86513 49.0039 9.0275 49.03C9.07189 49.0398 9.11708 49.0454 9.1625 49.0469C9.3039 49.0478 9.4432 49.0127 9.56722 48.9447C9.69125 48.8768 9.79589 48.7784 9.87125 48.6587L18.9669 34.5766C19.0344 34.5934 19.0934 34.6356 19.1609 34.6525C19.2992 34.6855 19.4407 34.7025 19.5828 34.7031C20.3574 34.6177 21.0932 34.3199 21.7091 33.8425C22.0923 33.5504 22.5318 33.3407 23 33.2266C23.4682 33.3407 23.9077 33.5504 24.2909 33.8425C24.6417 34.1409 25.0485 34.3662 25.4875 34.5053C25.9265 34.6444 26.3889 34.6944 26.8475 34.6525C26.915 34.6356 26.9741 34.5934 27.0331 34.5766L36.1288 48.6587C36.2041 48.7784 36.3088 48.8768 36.4328 48.9447C36.5568 49.0127 36.6961 49.0478 36.8375 49.0469C36.8829 49.0454 36.9281 49.0398 36.9725 49.03C37.1349 49.0039 37.2861 48.9308 37.4075 48.8199C37.5289 48.709 37.6153 48.565 37.6559 48.4056L39.0566 42.7019L44.8194 43.7734C44.9805 43.8035 45.1469 43.786 45.2982 43.7231C45.4496 43.6602 45.5793 43.5545 45.6716 43.4191C45.7656 43.2829 45.8166 43.1217 45.8181 42.9563C45.8196 42.7909 45.7715 42.6288 45.68 42.4909ZM9.51688 46.0938L8.39469 41.5291C8.34428 41.3197 8.2157 41.1375 8.03529 41.0198C7.85489 40.9022 7.63632 40.858 7.42438 40.8962L2.80063 41.7569L4.91 38.4916C7.01938 35.2178 9.13438 31.9441 11.255 28.6703C11.2642 28.7091 11.2698 28.7486 11.2719 28.7884C11.2592 29.2534 11.3383 29.7164 11.5048 30.1507C11.6713 30.5851 11.9219 30.9823 12.2422 31.3197C13.0488 31.794 14.0101 31.9305 14.9169 31.6994C15.3761 31.6046 15.8498 31.6046 16.3091 31.6994C16.6645 31.9935 16.9547 32.3584 17.1613 32.7709C17.3216 33.0156 17.4819 33.2603 17.6506 33.4966L9.51688 46.0938ZM26.7125 32.8384C26.6443 32.9158 26.557 32.974 26.4594 33.0072C26.2231 33.0578 25.5988 32.6781 25.1938 32.4166C24.5594 31.924 23.7991 31.6199 23 31.5391C22.2009 31.6199 21.4406 31.924 20.8063 32.4166C20.4013 32.6781 19.7769 33.0662 19.5491 33.0156C19.4456 32.976 19.3531 32.9124 19.2791 32.83C19.0178 32.5376 18.7886 32.2179 18.5956 31.8766C18.2465 31.1802 17.7123 30.5934 17.0516 30.1806C16.668 30.006 16.2493 29.9223 15.8281 29.9359C15.4612 29.9431 15.095 29.9712 14.7313 30.0203C14.2081 30.0794 13.4994 30.1637 13.2969 30.0034C13.0944 29.8431 13.01 29.1259 12.9509 28.6028C12.9407 27.8127 12.7098 27.0412 12.2844 26.3753C12.2172 26.2911 12.1408 26.2146 12.0566 26.1475C12.0244 26.1202 11.9906 26.0948 11.9553 26.0716L11.9469 26.0631H11.9384C11.434 25.6942 10.8685 25.4172 10.2678 25.2447C9.77 25.0675 9.095 24.8312 8.97688 24.5781C8.85875 24.3419 9.095 23.6753 9.26375 23.1859C9.60174 22.4684 9.72762 21.6692 9.62656 20.8825C9.37879 20.1435 8.92505 19.4907 8.31875 19.0009C7.9475 18.6297 7.43281 18.115 7.43281 17.8281C7.43281 17.5413 7.9475 17.0266 8.31875 16.6553C8.92505 16.1655 9.37879 15.5127 9.62656 14.7737C9.72762 13.9871 9.60174 13.1879 9.26375 12.4703C9.095 11.9809 8.85875 11.3144 8.97688 11.0697C9.095 10.825 9.77844 10.5887 10.2763 10.4116C11.0369 10.2327 11.7306 9.84048 12.2759 9.28094C12.7076 8.62061 12.9418 7.85074 12.9509 7.06187C13.01 6.53875 13.0859 5.83 13.2969 5.66125C13.5078 5.4925 14.2081 5.57687 14.7313 5.63594C15.5045 5.80065 16.3084 5.74511 17.0516 5.47562C17.7143 5.06527 18.2491 4.47786 18.5956 3.77969C18.8741 3.32406 19.2622 2.70812 19.5406 2.64906C19.7769 2.59 20.4013 2.98656 20.8063 3.23969C21.4406 3.7323 22.2009 4.03639 23 4.11719C23.7991 4.03639 24.5594 3.7323 25.1938 3.23969C25.5988 2.98656 26.2147 2.59844 26.4594 2.64906C26.7378 2.70812 27.1259 3.32406 27.4044 3.77969C27.7509 4.47786 28.2857 5.06527 28.9484 5.47562C29.6916 5.74511 30.4956 5.80065 31.2688 5.63594C31.7919 5.57687 32.5006 5.4925 32.7031 5.65281C32.9056 5.81312 32.99 6.53031 33.0491 7.05344C33.0593 7.84354 33.2902 8.61506 33.7156 9.28094C34.2691 9.84045 34.9673 10.2349 35.7322 10.42C36.23 10.5887 36.905 10.825 37.0231 11.0781C37.1413 11.3144 36.905 11.9809 36.7363 12.4703C36.3983 13.1879 36.2724 13.9871 36.3734 14.7737C36.6212 15.5127 37.075 16.1655 37.6813 16.6553C38.0525 17.0266 38.5672 17.5413 38.5672 17.8281C38.5672 18.115 38.0525 18.6297 37.6813 19.0009C37.075 19.4907 36.6212 20.1435 36.3734 20.8825C36.2724 21.6692 36.3983 22.4684 36.7363 23.1859C36.905 23.6753 37.1413 24.3419 37.0231 24.5866C36.905 24.8313 36.2216 25.0759 35.7322 25.2447C35.1004 25.4173 34.5075 25.7095 33.9856 26.1053C33.8921 26.1889 33.8047 26.2792 33.7241 26.3753C33.2924 27.0356 33.0582 27.8055 33.0491 28.5944C32.99 29.1175 32.9141 29.8262 32.7031 29.995C32.4922 30.1637 31.7919 30.0794 31.2688 30.0203C30.4959 29.8514 29.6908 29.907 28.9484 30.1806C28.2877 30.5934 27.7535 31.1802 27.4044 31.8766C27.2094 32.2214 26.9774 32.5439 26.7125 32.8384ZM38.5756 40.8962C38.3637 40.858 38.1451 40.9022 37.9647 41.0198C37.7843 41.1375 37.6557 41.3197 37.6053 41.5291L36.4831 46.0938L28.3494 33.4966C28.5181 33.2603 28.6784 33.0156 28.8388 32.7709C29.0455 32.3609 29.3324 31.9966 29.6825 31.6994C30.1446 31.6047 30.6211 31.6047 31.0831 31.6994C31.9871 31.931 32.946 31.7945 33.7494 31.3197C34.0725 30.9839 34.3254 30.5872 34.4935 30.1526C34.6615 29.718 34.7413 29.2542 34.7281 28.7884C34.7296 28.7486 34.7353 28.709 34.745 28.6703C36.8628 31.9441 38.9778 35.2178 41.09 38.4916L43.1994 41.7569L38.5756 40.8962Z" fill="#D14532"/>
</svg>
