<svg width="18" height="17" viewBox="0 0 18 17" fill="none" xmlns="http://www.w3.org/2000/svg">
<path d="M9.00059 13.686L9.25883 13.8422L13.4088 16.3522L13.409 16.3523C13.7886 16.582 14.2534 16.2445 14.1531 15.8133L13.0531 11.0935L12.9847 10.7997L13.2126 10.6021L16.8826 7.42213L16.8828 7.42198C17.2196 7.13048 17.0353 6.58303 16.6004 6.54844L16.5978 6.54823L11.7678 6.13822L11.4673 6.11272L11.3497 5.8351L9.4597 1.3751L9.45904 1.37353C9.29057 0.97217 8.70958 0.97217 8.5411 1.37353L8.54029 1.37547L6.65028 5.82547L6.53252 6.10274L6.23236 6.12822L1.40236 6.53822L1.39972 6.53844L1.39972 6.53844C0.964808 6.57303 0.780592 7.12048 1.11732 7.41198L1.1175 7.41213L4.7875 10.5921L5.0155 10.7897L4.94702 11.0835L3.84708 15.8033L9.00059 13.686ZM9.00059 13.686L8.74207 13.8417M9.00059 13.686L8.74207 13.8417M8.74207 13.8417L4.59207 16.3417L4.59117 16.3423M8.74207 13.8417L4.59117 16.3423M4.59117 16.3423C4.21162 16.572 3.74695 16.2346 3.84702 15.8035L4.59117 16.3423Z" stroke="#FFD900"/>
</svg>
